HIERARCHY
ROOT Hips
{
  OFFSET 0 0 0
  CHANNELS 6 Xposition Yposition Zposition Zrotation Xrotation Yrotation
  JOINT Spine
  {
    OFFSET 0.00000000 0.00000000 0.00000000
    CHANNELS 3 Zrotation Xrotation Yrotation
    JOINT Spine1
    {
      OFFSET 0.19000000 0.00000000 0.00000000
      CHANNELS 3 Zrotation Xrotation Yrotation
      JOINT Neck
      {
        OFFSET 0.22500000 0.00600000 0.00000000
        CHANNELS 3 Zrotation Xrotation Yrotation
        JOINT Head
        {
          OFFSET 0.14000000 0.00030878 0.00000000
          CHANNELS 3 Zrotation Xrotation Yrotation
          End Site
          {
            OFFSET 0.17000000 0.00000000 0.00000000
          }
        }
      }
      JOINT LeftShoulder
      {
        OFFSET 0.19800000 0.03700000 0.04300000
        CHANNELS 3 Zrotation Xrotation Yrotation
        JOINT LeftArm
        {
          OFFSET 0.08000000 0.00000000 0.00000000
          CHANNELS 3 Zrotation Xrotation Yrotation
          JOINT LeftForeArm
          {
            OFFSET 0.15200000 0.00000000 0.00000000
            CHANNELS 3 Zrotation Xrotation Yrotation
            JOINT LeftHand
            {
              OFFSET 0.17800000 0.00000000 0.00000000
              CHANNELS 3 Zrotation Xrotation Yrotation
              End Site
              {
                OFFSET 0.07200000 0.00000000 0.00000000
              }
            }
          }
        }
      }
      JOINT RightShoulder
      {
        OFFSET 0.19800000 0.03700000 -0.04300000
        CHANNELS 3 Zrotation Xrotation Yrotation
        JOINT RightArm
        {
          OFFSET 0.08000000 0.00000000 0.00151654
          CHANNELS 3 Zrotation Xrotation Yrotation
          JOINT RightForeArm
          {
            OFFSET 0.15200000 0.00000000 0.00000000
            CHANNELS 3 Zrotation Xrotation Yrotation
            JOINT RightHand
            {
              OFFSET 0.17800000 0.00000000 0.00000000
              CHANNELS 3 Zrotation Xrotation Yrotation
              End Site
              {
                OFFSET 0.07200000 0.00000000 0.00000000
              }
            }
          }
        }
      }
    }
  }
  JOINT LeftUpLeg
  {
    OFFSET 0.05984250 -0.07666000 0.04788790
    CHANNELS 3 Zrotation Xrotation Yrotation
    JOINT LeftLeg
    {
      OFFSET 0.16000000 0.00000000 0.00000000
      CHANNELS 3 Zrotation Xrotation Yrotation
      JOINT LeftFoot
      {
        OFFSET 0.18000000 0.00000000 0.00000000
        CHANNELS 3 Zrotation Xrotation Yrotation
        End Site
        {
          OFFSET 0.00000000 -0.10800000 0.00000000
        }
      }
    }
  }
  JOINT RightUpLeg
  {
    OFFSET 0.05984250 -0.07665980 -0.04788790
    CHANNELS 3 Zrotation Xrotation Yrotation
    JOINT RightLeg
    {
      OFFSET 0.16000000 0.00000000 0.00000000
      CHANNELS 3 Zrotation Xrotation Yrotation
      JOINT RightFoot
      {
        OFFSET 0.18000000 0.00000000 0.00000000
        CHANNELS 3 Zrotation Xrotation Yrotation
        End Site
        {
          OFFSET 0.00000000 -0.10800000 0.00000000
        }
      }
    }
  }
  JOINT Tail
  {
    OFFSET 0.06836960 -0.00722574 0.00000000
    CHANNELS 3 Zrotation Xrotation Yrotation
    JOINT Tail1
    {
      OFFSET 0.12000000 0.00000000 0.00000000
      CHANNELS 3 Zrotation Xrotation Yrotation
      End Site
      {
        OFFSET 0.12000000 0.00000000 0.00000000
      }
    }
  }
}
MOTION
Frames:	21
Frame Time:	0.0166667
0.0000000 0.4721560 0.0000000 -7.76185 5.48721 0.74675 -171.195 3.48972 -0.492172 9.7269 2.12299 14.9248 0.0823917 -5.34419 -1.74255 -109.854 70.8701 112.693 -113.746 -42.992 -135.027 118.919 -3.53536 -118.929 -80.1481 -35.6201 23.7385 5.92571 2.2559 -17.0386 78.2209 -23.3811 37.4817 48.8467 -48.3832 -38.9131 -62.8953 1.3665 -0.254569 19.0511 -1.46359 -18.9597 -124.716 -4.63627 -10.269 70.1421 17.0415 5.91227 40.248 -3.90954 -6.84671 -139.226 9.79696 4.31647 95.6548 -3.9275 -6.89346 32.6552 -0.595536 -1.61842 26.5927 -15.5857 44.5207 15.6816 25.4428 10.1692 
-0.0240262 0.4586060 0.0001651 -9.52570 8.73024 1.49187 -170.001 4.36434 0.546039 7.09122 2.57667 14.357 1.98103 -4.50709 -2.45015 -109.892 71.1022 115.393 -113.957 -42.8957 -135.649 118.136 -3.46157 -118.564 -78.5066 -26.5031 18.4401 5.03744 1.74623 -13.4832 77.5871 -24.4276 38.148 44.0573 -53.1362 -37.6085 -71.0026 3.95393 -2.14889 33.8624 -6.75521 -34.0633 -121.788 -1.79487 -13.2141 80.8801 17.0266 3.91085 27.6967 -3.65753 -7.21421 -141.326 10.396 3.81185 90.7616 -5.18148 -7.99124 36.1382 -0.293618 -1.39501 29.0851 -19.1476 44.8303 17.5329 26.413 9.45104 
-0.0495716 0.4443600 -0.0018255 -10.8285 11.2638 1.59187 -168.619 4.74153 1.20283 3.91924 2.61774 13.1715 4.37827 -3.33369 -2.44651 -111.826 71.0906 118.627 -113.35 -42.2058 -135.405 122.155 -6.29515 -121.304 -76.0437 -18.7358 12.9931 3.64626 1.68184 -12.333 76.8567 -25.5114 38.4699 40.0895 -53.1889 -32.7682 -80.4363 -10.0774 -8.23061 24.5809 -3.90098 -66.4001 -117.98 -1.22235 -17.0355 84.4549 18.1811 3.88725 21.4189 -3.45614 -7.11099 -142.734 9.49644 2.57943 84.5531 -7.50637 -8.85973 39.4534 0.225365 -0.963822 28.886 -20.6961 44.5433 18.254 24.808 9.99679 
-0.0752571 0.4336310 -0.0044624 -11.0050 13.5248 1.30582 -167.738 5.10674 1.74663 0.92031 2.84604 11.4244 6.14147 -1.62775 -1.82275 -115.086 71.0765 123.114 -112.645 -41.5657 -134.835 126.57 -10.1081 -122.079 -72.713 -9.34738 8.22077 0.533575 1.33688 -9.53221 75.9657 -27.1316 39.6728 39.417 -47.3271 -31.4723 -91.5486 -20.1283 -13.6151 11.7972 7.98609 -76.9554 -115.121 -0.529624 -21.0733 90.2668 19.5395 3.5174 15.4954 -3.35705 -7.39456 -142.957 8.21925 0.392747 75.2352 -11.2384 -9.51961 44.5167 1.19414 -0.22191 24.9299 -20.7795 42.6686 17.4183 20.135 11.7131 
-0.1020097 0.4261870 -0.0088532 -10.6225 13.8961 1.01224 -166.605 4.75423 1.86797 -2.3493 2.32279 10.3513 7.51061 0.385955 -1.02176 -119.4 70.6712 127.65 -112.138 -40.7595 -134.984 131.796 -15.6664 -123.217 -69.1136 2.48687 4.01796 -5.52311 0.832059 -7.62572 74.8204 -29.2359 41.0674 44.0588 -40.4558 -35.0746 -98.4948 -2.32308 -11.8096 25.4844 -4.72847 -67.5543 -111.891 -0.831745 -22.7789 92.8302 20.0946 3.08048 13.3405 -3.31173 -7.52144 -142.133 6.39974 -1.27826 66.6819 -16.0789 -9.27907 50.8152 2.34599 0.485576 17.6555 -17.8479 37.6621 15.3117 12.3937 14.329 
-0.1291377 0.4191440 -0.0146769 -9.23467 13.1725 0.21262 -166.616 3.80087 1.95675 -5.04864 1.37221 9.01234 9.01134 2.34014 -0.205408 -123.663 69.9794 131.68 -111.18 -39.2363 -135.268 137.073 -22.9185 -126.242 -66.6517 6.52878 3.44217 -8.97991 1.53266 -11.2989 73.9595 -30.7362 41.797 48.4747 -30.2483 -42.0237 -101.374 18.9171 -12.5355 41.9552 -12.2898 -45.9556 -110.661 -1.76147 -23.052 95.5574 19.8963 2.31791 14.173 -3.32742 -7.4927 -140.504 7.38416 -1.53444 63.9198 -11.912 -9.22593 52.0699 1.73869 -0.162715 10.5361 -13.7383 32.4843 11.9415 4.61481 15.0805 
-0.1554061 0.4124150 -0.0207331 -8.08923 11.8776 -0.04368 -166.175 3.14844 2.97667 -8.19216 0.755397 6.89738 10.9312 3.18622 1.27482 -125.301 69.0564 133.609 -110.278 -36.9981 -137.037 134.797 -30.5382 -131.739 -71.8707 7.15086 6.92618 -12.6434 2.21258 -14.2707 73.5942 -31.6163 42.6431 51.3953 -19.9668 -47.4367 -99.5239 34.2189 -16.7682 45.7934 -8.31137 -23.2857 -109.975 -1.8398 -22.1177 98.3967 19.1163 1.33984 17.4074 -3.39025 -7.35029 -137.545 8.48129 -1.22792 69.4104 -10.7275 -9.163 36.6718 0.573795 -0.195912 4.64966 -9.12561 26.4263 7.56396 -2.53054 14.4616 
-0.1836976 0.4088140 -0.0278640 -7.35936 9.66189 0.35101 -165.81 2.53192 5.40493 -10.0163 0.327312 3.70192 12.2855 2.79315 2.88282 -124.046 67.0072 132.631 -109.819 -35.1023 -139.534 125.055 -35.162 -137.159 -79.2248 1.53878 9.86321 -13.3147 2.95278 -16.4812 73.0321 -32.8475 43.5928 54.3004 -10.0246 -51.3473 -95.8834 35.1896 -20.9023 35.0994 -4.05589 -16.0122 -108.377 -1.26453 -19.615 99.2501 18.0513 0.557177 23.7124 -3.49264 -7.17998 -136.267 7.33821 -0.699265 78.317 -11.6946 -8.27372 25.0279 0.0834247 -0.142665 -0.661829 -2.84938 19.7421 3.05619 -9.58731 12.3943 
-0.2159203 0.4073630 -0.0359446 -5.97970 6.34107 0.01221 -167.136 1.67259 7.75893 -10.064 0.12307 -0.331173 13.5884 1.32777 5.27795 -121.637 64.6873 129.738 -109.86 -33.4906 -143.067 120.111 -37.5565 -139.212 -80.6283 1.92537 10.6834 -16.1054 3.88718 -18.7722 73.3353 -33.1904 45.2571 55.4647 -2.5801 -52.2495 -93.8584 28.4575 -22.0841 21.9513 -0.96287 -13.7514 -106.24 -1.63414 -15.219 97.3662 16.3555 0.11254 31.6843 -3.60727 -7.07707 -134.214 6.89559 0.375933 79.999 -8.59959 -7.71574 20.9742 -0.721416 -1.02973 -6.67688 5.76304 13.4805 -0.956863 -16.4538 8.75813 
-0.2479761 0.4106970 -0.0453659 -3.57092 2.83205 -1.26106 -171.11 0.427259 8.91841 -7.19909 -0.174478 -3.95822 14.469 -0.420467 7.16003 -120.067 61.7278 126.408 -109.573 -32.1535 -145.291 117.248 -38.2325 -139.691 -79.6228 7.27286 10.7066 -19.9473 3.56506 -16.7651 73.3707 -33.4291 45.8635 52.3314 3.65318 -51.5825 -90.3108 13.9276 -20.1564 6.06628 1.75456 -11.0341 -104.976 -2.88303 -10.6994 92.3133 14.8774 0.0697887 41.5368 -3.63054 -6.75735 -132.168 4.90431 1.24375 82.4333 -8.8085 -6.86367 16.6602 -0.979041 -1.25138 -12.9455 14.3793 7.95051 -4.33401 -20.9819 3.799 
-0.2817772 0.4178700 -0.0550313 -1.12195 -0.09757 -3.15076 -176.427 -0.29236 8.03265 -1.91787 -0.172318 -5.78667 14.6515 -2.48895 8.6606 -119.035 58.9017 123.219 -108.972 -30.4227 -147.735 120.174 -38.5336 -138.919 -75.1 11.5962 9.40796 -23.1211 4.29816 -17.7333 73.481 -33.8893 47.1408 46.2954 7.54817 -50.9725 -82.2282 7.5124 -16.8253 -1.98059 0.921869 -2.00456 -102.861 -4.38715 -6.69867 85.2563 12.74 0.263428 51.598 -3.38372 -6.18094 -129.866 3.00343 2.46732 82.3541 -10.1746 -6.20876 17.5294 -0.787553 -0.935936 -18.1811 21.0689 3.04825 -6.67972 -22.3177 -1.18407 
-0.3176596 0.4263570 -0.0637802 1.25707 -1.99457 -5.04350 178.015 -0.190951 6.69887 4.5168 0.270531 -6.76451 14.3531 -4.55928 10.0272 -119.324 57.188 119.924 -108.072 -28.6033 -149.755 125.586 -38.3385 -137.71 -69.6865 13.7082 8.04291 -24.0937 4.67141 -18.1756 73.6189 -34.9122 49.5588 45.3996 12.6993 -53.3974 -75.3638 4.11378 -15.612 -2.88668 1.13749 -3.78432 -100.251 -4.97179 -3.66993 78.3902 12.346 0.380699 58.8469 -3.16172 -5.76485 -127.355 1.82934 3.15611 81.2749 -11.0664 -5.76893 21.1614 -0.329837 -0.460798 -22.4631 25.702 -1.89965 -7.69765 -21.8407 -4.77626 
-0.3545499 0.4375980 -0.0713171 2.16721 -3.72899 -6.52490 175.6 0.133556 5.88563 9.08057 0.598982 -7.35855 13.6756 -6.39858 11.1906 -119.728 56.4437 117.191 -106.858 -26.7545 -151.08 130.292 -37.7986 -136.619 -64.6868 14.9781 6.96996 -23.8277 4.25697 -16.9748 73.8352 -36.397 52.9069 43.5433 13.5091 -54.7438 -67.1212 -4.02534 -12.5352 -4.4733 1.85516 -6.69724 -99.0259 -5.66918 -1.88546 74.4495 12.2294 0.909028 64.7724 -3.11976 -5.68536 -123.638 0.998887 4.11872 79.7211 -10.5546 -5.32471 27.4633 0.20571 -0.230474 -24.6557 29.9674 -7.41442 -7.44136 -21.0649 -6.20657 
-0.3924577 0.4494710 -0.0786470 3.27209 -4.44131 -7.83075 173.808 0.542777 5.35707 12.7596 0.967187 -8.13936 12.1762 -7.13744 11.9268 -120.783 55.7047 116.09 -105.81 -25.5441 -151.149 135.549 -38.1763 -134.916 -59.5394 14.4493 5.59771 -21.052 3.60532 -15.6529 73.6683 -37.5191 54.3326 37.2549 6.25217 -51.7806 -60.9229 -4.27216 -6.63019 -2.83488 -0.0524543 0.768953 -99.7229 -6.27538 -1.40723 72.6828 15.2319 1.42466 64.9294 -3.18805 -5.6728 -120.841 -0.0863058 3.20709 77.4679 -9.78635 -4.31312 37.2698 0.70664 -0.356355 -26.1671 33.1382 -14.0269 -6.57254 -20.4247 -5.89065 
-0.4314207 0.4622200 -0.0865786 4.55713 -4.24839 -9.08829 172.778 1.09881 3.92308 15.5514 1.42109 -7.73882 9.18151 -6.95322 11.9858 -121.67 55.1585 116.316 -105.337 -25.1785 -150.589 139.748 -37.8697 -132.097 -53.9538 13.9242 3.53536 -17.4693 2.53129 -12.9892 73.566 -37.7081 54.3538 35.1274 -1.97809 -47.7681 -65.0819 -13.1054 -8.03853 -15.176 0.513511 1.96728 -102.754 -7.06921 -2.20787 75.2553 14.5798 1.51816 60.9536 -3.05344 -5.4759 -118.081 -1.67444 0.361794 73.7056 -9.14976 -2.63491 48.4257 1.06191 -0.751598 -26.8696 35.2729 -21.6891 -5.37379 -19.9062 -4.31581 
-0.4720923 0.4750720 -0.0949448 5.54267 -4.34105 -10.1086 172.53 1.2891 1.93595 17.9241 1.47852 -6.28475 4.35381 -6.79707 11.4298 -120.573 54.6546 117.148 -105.509 -25.6039 -149.86 142.832 -36.761 -128.78 -48.2644 13.1651 1.06355 -14.0202 1.46546 -9.63126 73.6641 -37.3603 54.0562 39.1169 -4.71743 -46.7307 -70.5592 -14.3537 -10.4864 -17.8203 1.04529 1.22028 -106.878 -8.44374 -3.51389 79.8761 12.9788 1.70195 55.958 -2.95311 -5.3219 -115.534 -2.70345 -1.53071 70.129 -7.43735 -1.29957 58.3921 1.17393 -1.34697 -26.6366 37.1993 -29.4381 -4.10149 -19.32 -2.04155 
-0.5137240 0.4862950 -0.1031906 6.41847 -4.42999 -10.9688 172.582 1.17458 -0.243698 19.7737 1.29205 -4.46551 -1.45425 -6.75803 10.7092 -118.796 54.408 117.832 -106.231 -26.6998 -149.081 145.624 -34.9332 -125.047 -42.0366 11.1627 -1.75417 -8.71375 0.457271 -5.4611 73.3993 -36.649 52.075 40.2509 -11.6136 -46.4234 -73.4369 -9.58055 -8.43721 -16.2824 -2.30585 11.3965 -111.799 -9.64024 -5.06327 85.3462 10.7101 1.73895 51.3064 -2.79237 -5.11204 -114.475 -3.152 -2.73549 70.1903 -3.53909 -0.507198 62.3667 0.829695 -1.93927 -25.739 38.2465 -36.7188 -3.18482 -18.4871 0.280855 
-0.5555615 0.4948630 -0.1110565 7.01958 -4.59645 -11.7246 173.945 0.897495 -2.24808 18.9543 1.08873 -3.00471 -6.66677 -6.71966 10.2068 -116.481 54.5448 118.783 -106.853 -27.5242 -148.805 146.402 -32.2933 -122.85 -35.9395 8.06063 -3.79702 -2.41446 -0.50149 1.12017 73.6535 -34.6496 49.1621 41.0852 -16.1409 -43.9567 -75.6163 -16.4695 -8.32302 -22.0917 -2.18279 10.8854 -116.417 -10.7097 -6.44006 90.7512 9.06529 1.62165 44.6218 -2.69249 -4.95545 -115.348 -1.98 -2.18921 73.979 1.99313 -1.10018 63.16 0.305497 -2.41989 -24.4409 38.6313 -43.1485 -2.83978 -17.1452 1.86041 
-0.5972550 0.5007380 -0.1182958 7.29419 -4.88928 -12.3153 175.372 0.50538 -4.21099 17.6727 0.785053 -1.10746 -12.1115 -7.207 9.32368 -113.646 54.338 119.138 -107.896 -29.0834 -147.898 144.224 -28.8622 -120.587 -36.797 -8.36544 -4.40025 14.8028 1.79911 3.68503 74.0409 -32.7067 46.4566 42.8362 -22.7262 -42.9194 -75.6867 -17.3464 -6.17691 -24.1878 -3.95269 15.4594 -121.696 -11.6979 -8.38358 95.8717 9.08162 1.81904 39.6253 -2.77526 -5.05527 -118.212 -0.0307415 -0.379238 82.3773 2.98208 -2.56391 55.4308 -0.0405618 -2.32701 -22.818 38.707 -49.0082 -2.8902 -15.0497 2.32341 
-0.6379908 0.5060050 -0.1251151 6.77774 -5.02496 -13.0091 177.716 0.0864383 -6.6246 15.4666 0.489338 1.74147 -17.0956 -7.413 7.36181 -110.961 53.813 119.483 -108.902 -31.0041 -146.078 142.512 -29.1516 -118.479 -44.975 -34.0587 -3.3307 33.5446 2.70554 -13.4233 74.6394 -30.6525 43.8746 42.9835 -29.2405 -40.6727 -73.3347 -18.9921 -4.34874 -26.297 -5.18295 18.3196 -126.124 -12.0937 -9.40105 99.7238 8.65824 1.76509 35.9193 -2.79932 -5.09345 -122.341 1.98812 1.67095 91.4577 2.30923 -3.61128 47.6294 -0.278008 -2.17709 -20.5029 38.2988 -54.2581 -3.234 -11.8503 1.23989 
-0.6779059 0.5101560 -0.1314899 5.66245 -4.82581 -13.5814 -179.404 -0.34398 -8.45523 12.5527 0.190762 3.86311 -20.4008 -7.63687 6.1702 -109.719 54.2336 118.97 -109.999 -33.1853 -144.136 141.403 -33.3607 -117.585 -54.9544 -52.742 0.00147613 43.4105 -0.898825 -28.896 75.8221 -28.1646 41.9271 42.4215 -35.6987 -38.1003 -68.956 -20.6681 -2.56195 -27.3443 -5.74284 19.7713 -129.983 -11.7312 -10.1053 102.253 9.33314 1.59377 33.8106 -2.83931 -5.13966 -126.259 3.46289 2.53337 96.5215 2.51956 -3.97994 43.5351 -0.477635 -2.18815 -17.4999 37.3258 -59.1991 -3.38736 -7.6807 -1.30052 
